<svg width="26" height="26" viewBox="0 0 26 26" fill="none" xmlns="http://www.w3.org/2000/svg">
<path d="M19.8286 19.0676C19.8815 19.1169 19.924 19.1763 19.9534 19.2424C19.9828 19.3084 19.9986 19.3797 19.9999 19.452C20.0012 19.5243 19.9879 19.5962 19.9608 19.6632C19.9337 19.7303 19.8934 19.7912 19.8423 19.8423C19.7912 19.8934 19.7303 19.9337 19.6632 19.9608C19.5962 19.9879 19.5243 20.0012 19.452 19.9999C19.3797 19.9986 19.3084 19.9828 19.2424 19.9534C19.1763 19.924 19.1169 19.8815 19.0676 19.8286L12.9866 13.7485L6.90554 19.8286C6.80347 19.9237 6.66846 19.9755 6.52896 19.9731C6.38946 19.9706 6.25637 19.9141 6.15771 19.8154C6.05906 19.7168 6.00255 19.5837 6.00008 19.4442C5.99762 19.3047 6.0494 19.1697 6.14452 19.0676L12.2246 12.9866L6.14452 6.90554C6.0494 6.80347 5.99762 6.66846 6.00008 6.52896C6.00255 6.38946 6.05906 6.25637 6.15771 6.15771C6.25637 6.05906 6.38946 6.00255 6.52896 6.00008C6.66846 5.99762 6.80347 6.0494 6.90554 6.14452L12.9866 12.2246L19.0676 6.14452C19.1697 6.0494 19.3047 5.99762 19.4442 6.00008C19.5837 6.00255 19.7168 6.05906 19.8154 6.15771C19.9141 6.25637 19.9706 6.38946 19.9731 6.52896C19.9755 6.66846 19.9237 6.80347 19.8286 6.90554L13.7485 12.9866L19.8286 19.0676Z" fill="white"/>
</svg>
