<svg width="20" height="20" viewBox="0 0 20 20" fill="none" xmlns="http://www.w3.org/2000/svg">
<path d="M6.41992 12.8203H2.30078C2.1375 12.8203 2.00391 12.9539 2.00391 13.1172V14.0078C2.00391 14.1711 2.1375 14.3047 2.30078 14.3047H5.5293V17.5703C5.5293 17.7336 5.66289 17.8672 5.82617 17.8672H6.7168C6.88008 17.8672 7.01367 17.7336 7.01367 17.5703V13.4141C7.01367 13.0856 6.74834 12.8203 6.41992 12.8203ZM6.7168 2.13281H5.82617C5.66289 2.13281 5.5293 2.26641 5.5293 2.42969V5.69531H2.30078C2.1375 5.69531 2.00391 5.82891 2.00391 5.99219V6.88281C2.00391 7.04609 2.1375 7.17969 2.30078 7.17969H6.41992C6.74834 7.17969 7.01367 6.91436 7.01367 6.58594V2.42969C7.01367 2.26641 6.88008 2.13281 6.7168 2.13281ZM17.4414 12.8203H13.3223C12.9938 12.8203 12.7285 13.0856 12.7285 13.4141V17.5703C12.7285 17.7336 12.8621 17.8672 13.0254 17.8672H13.916C14.0793 17.8672 14.2129 17.7336 14.2129 17.5703V14.3047H17.4414C17.6047 14.3047 17.7383 14.1711 17.7383 14.0078V13.1172C17.7383 12.9539 17.6047 12.8203 17.4414 12.8203ZM17.4414 5.69531H14.2129V2.42969C14.2129 2.26641 14.0793 2.13281 13.916 2.13281H13.0254C12.8621 2.13281 12.7285 2.26641 12.7285 2.42969V6.58594C12.7285 6.91436 12.9938 7.17969 13.3223 7.17969H17.4414C17.6047 7.17969 17.7383 7.04609 17.7383 6.88281V5.99219C17.7383 5.82891 17.6047 5.69531 17.4414 5.69531Z" fill="white"/>
</svg>
