<svg width="19" height="20" viewBox="0 0 19 20" fill="none" xmlns="http://www.w3.org/2000/svg">
<path d="M6.38281 2.13281H2.48047C2.16934 2.13281 1.91797 2.39814 1.91797 2.72656V6.88281C1.91797 7.04609 2.04453 7.17969 2.19922 7.17969H3.04297C3.19766 7.17969 3.32422 7.04609 3.32422 6.88281V3.61719H6.38281C6.5375 3.61719 6.66406 3.48359 6.66406 3.32031V2.42969C6.66406 2.26641 6.5375 2.13281 6.38281 2.13281ZM16.543 12.8203H15.6992C15.5445 12.8203 15.418 12.9539 15.418 13.1172V16.3828H12.3594C12.2047 16.3828 12.0781 16.5164 12.0781 16.6797V17.5703C12.0781 17.7336 12.2047 17.8672 12.3594 17.8672H16.2617C16.5729 17.8672 16.8242 17.6019 16.8242 17.2734V13.1172C16.8242 12.9539 16.6977 12.8203 16.543 12.8203ZM6.38281 16.3828H3.32422V13.1172C3.32422 12.9539 3.19766 12.8203 3.04297 12.8203H2.19922C2.04453 12.8203 1.91797 12.9539 1.91797 13.1172V17.2734C1.91797 17.6019 2.16934 17.8672 2.48047 17.8672H6.38281C6.5375 17.8672 6.66406 17.7336 6.66406 17.5703V16.6797C6.66406 16.5164 6.5375 16.3828 6.38281 16.3828ZM16.2617 2.13281H12.3594C12.2047 2.13281 12.0781 2.26641 12.0781 2.42969V3.32031C12.0781 3.48359 12.2047 3.61719 12.3594 3.61719H15.418V6.88281C15.418 7.04609 15.5445 7.17969 15.6992 7.17969H16.543C16.6977 7.17969 16.8242 7.04609 16.8242 6.88281V2.72656C16.8242 2.39814 16.5729 2.13281 16.2617 2.13281Z" fill="white"/>
</svg>
