<svg width="26" height="26" viewBox="0 0 26 26" fill="none" xmlns="http://www.w3.org/2000/svg">
<path d="M8.77344 21.1953C7.26562 21.1953 6.49219 20.4141 6.49219 18.8906V6.84375C6.49219 5.32031 7.27344 4.54688 8.77344 4.54688H12.5234C13.2812 4.54688 13.6875 4.66406 14.1875 5.17188L18.7812 9.8125C19.2969 10.3438 19.4062 10.7188 19.4062 11.5625V18.8906C19.4062 20.4141 18.6406 21.1953 17.125 21.1953H8.77344ZM8.82031 20.2266H17.0781C17.9766 20.2266 18.4453 19.75 18.4453 18.8672V11.5234H13.7969C12.9297 11.5234 12.4766 11.1016 12.4766 10.2109V5.50781H8.82812C7.92188 5.50781 7.46094 6.00781 7.46094 6.86719V18.8672C7.46094 19.75 7.92188 20.2266 8.82031 20.2266ZM13.8984 10.6094H18.25L13.3906 5.70312V10.1094C13.3906 10.4688 13.5391 10.6094 13.8984 10.6094ZM13.4141 13.0156V16.3203L13.375 17.7422L14.3906 16.7109L15.0703 16.0156C15.1484 15.9297 15.2734 15.875 15.3906 15.875C15.6328 15.875 15.8203 16.0547 15.8203 16.3047C15.8203 16.4609 15.75 16.5625 15.6406 16.6641L13.2891 18.8906C13.1719 19.0078 13.0703 19.0547 12.9531 19.0547C12.8359 19.0547 12.7344 19.0078 12.6094 18.8906L10.2578 16.6641C10.1562 16.5625 10.0781 16.4609 10.0781 16.3047C10.0781 16.0547 10.2578 15.875 10.5078 15.875C10.625 15.875 10.75 15.9297 10.8359 16.0156L11.5156 16.7109L12.5312 17.7422L12.4922 16.3203V13.0156C12.4922 12.7656 12.7031 12.5625 12.9531 12.5625C13.2031 12.5625 13.4141 12.7656 13.4141 13.0156Z" fill="white"/>
</svg>
