<svg width="26" height="26" viewBox="0 0 26 26" fill="none" xmlns="http://www.w3.org/2000/svg">
<rect width="26" height="26" rx="2" fill="white" fill-opacity="0.6"/>
<path d="M9.23926 20.3584C7.91992 20.3584 7.24316 19.6748 7.24316 18.3418V7.80078C7.24316 6.46777 7.92676 5.79102 9.23926 5.79102H12.5205C13.1836 5.79102 13.5391 5.89355 13.9766 6.33789L17.9961 10.3984C18.4473 10.8633 18.543 11.1914 18.543 11.9297V18.3418C18.543 19.6748 17.873 20.3584 16.5469 20.3584H9.23926ZM9.28027 19.5107H16.5059C17.292 19.5107 17.7021 19.0938 17.7021 18.3213V11.8955H13.6348C12.876 11.8955 12.4795 11.5264 12.4795 10.7471V6.63184H9.28711C8.49414 6.63184 8.09082 7.06934 8.09082 7.82129V18.3213C8.09082 19.0938 8.49414 19.5107 9.28027 19.5107ZM13.7236 11.0957H17.5312L13.2793 6.80273V10.6582C13.2793 10.9727 13.4092 11.0957 13.7236 11.0957ZM13.2998 13.2012V16.0928L13.2656 17.3369L14.1543 16.4346L14.749 15.8262C14.8174 15.751 14.9268 15.7031 15.0293 15.7031C15.2412 15.7031 15.4053 15.8604 15.4053 16.0791C15.4053 16.2158 15.3438 16.3047 15.248 16.3936L13.1904 18.3418C13.0879 18.4443 12.999 18.4854 12.8965 18.4854C12.7939 18.4854 12.7051 18.4443 12.5957 18.3418L10.5381 16.3936C10.4492 16.3047 10.3809 16.2158 10.3809 16.0791C10.3809 15.8604 10.5381 15.7031 10.7568 15.7031C10.8594 15.7031 10.9688 15.751 11.0439 15.8262L11.6387 16.4346L12.5273 17.3369L12.4932 16.0928V13.2012C12.4932 12.9824 12.6777 12.8047 12.8965 12.8047C13.1152 12.8047 13.2998 12.9824 13.2998 13.2012Z" fill="#121212"/>
</svg>
