<svg width="26" height="26" viewBox="0 0 26 26" fill="none" xmlns="http://www.w3.org/2000/svg">
<rect width="26" height="26" rx="2" fill="white" fill-opacity="0.6"/>
<path d="M7.03906 9.79688C6.58789 9.79688 6.22559 9.43457 6.22559 8.9834C6.22559 8.53223 6.58789 8.16992 7.03906 8.16992C7.49023 8.16992 7.85254 8.53223 7.85254 8.9834C7.85254 9.43457 7.49023 9.79688 7.03906 9.79688ZM9.94434 9.40723C9.70508 9.40723 9.52051 9.22266 9.52051 8.9834C9.52051 8.74414 9.70508 8.56641 9.94434 8.56641H19.3438C19.583 8.56641 19.7676 8.74414 19.7676 8.9834C19.7676 9.22266 19.583 9.40723 19.3438 9.40723H9.94434ZM7.03906 13.8848C6.58789 13.8848 6.22559 13.5225 6.22559 13.0713C6.22559 12.6201 6.58789 12.2578 7.03906 12.2578C7.49023 12.2578 7.85254 12.6201 7.85254 13.0713C7.85254 13.5225 7.49023 13.8848 7.03906 13.8848ZM9.94434 13.4951C9.70508 13.4951 9.52051 13.3105 9.52051 13.0713C9.52051 12.832 9.70508 12.6475 9.94434 12.6475H19.3438C19.583 12.6475 19.7676 12.832 19.7676 13.0713C19.7676 13.3105 19.583 13.4951 19.3438 13.4951H9.94434ZM7.03906 17.9727C6.58789 17.9727 6.22559 17.6104 6.22559 17.1592C6.22559 16.708 6.58789 16.3457 7.03906 16.3457C7.49023 16.3457 7.85254 16.708 7.85254 17.1592C7.85254 17.6104 7.49023 17.9727 7.03906 17.9727ZM9.94434 17.583C9.70508 17.583 9.52051 17.3984 9.52051 17.1592C9.52051 16.9199 9.70508 16.7354 9.94434 16.7354H19.3438C19.583 16.7354 19.7676 16.9199 19.7676 17.1592C19.7676 17.3984 19.583 17.583 19.3438 17.583H9.94434Z" fill="#121212"/>
</svg>
