<svg width="19" height="18" viewBox="0 0 19 18" fill="none" xmlns="http://www.w3.org/2000/svg">
<path d="M3.37109 17.8066C1.4668 17.8066 0.490234 16.8398 0.490234 14.9551V2.98242C0.490234 1.08789 1.4668 0.121094 3.37109 0.121094H15.2949C17.1992 0.121094 18.1758 1.09766 18.1758 2.98242V14.9551C18.1758 16.8301 17.1992 17.8066 15.2949 17.8066H3.37109ZM5.16797 9.61328H13.5176C13.9375 9.61328 14.2402 9.36914 14.2402 8.96875C14.2402 8.55859 13.957 8.31445 13.5176 8.31445H5.16797C4.72852 8.31445 4.43555 8.55859 4.43555 8.96875C4.43555 9.36914 4.74805 9.61328 5.16797 9.61328Z" fill="white"/>
</svg>
