<svg width="19" height="18" viewBox="0 0 19 18" fill="none" xmlns="http://www.w3.org/2000/svg">
<path d="M3.37109 17.8066C1.4668 17.8066 0.490234 16.8398 0.490234 14.9551V2.98242C0.490234 1.08789 1.4668 0.121094 3.37109 0.121094H15.2949C17.1992 0.121094 18.1758 1.09766 18.1758 2.98242V14.9551C18.1758 16.8301 17.1992 17.8066 15.2949 17.8066H3.37109ZM4.73828 8.95898C4.73828 9.32031 5.02148 9.59375 5.40234 9.59375H8.69336V12.8848C8.69336 13.2559 8.95703 13.5391 9.32812 13.5391C9.70898 13.5391 9.98242 13.2656 9.98242 12.8848V9.59375H13.2832C13.6543 9.59375 13.9375 9.32031 13.9375 8.95898C13.9375 8.56836 13.6641 8.29492 13.2832 8.29492H9.98242V5.00391C9.98242 4.61328 9.70898 4.33984 9.32812 4.33984C8.95703 4.33984 8.69336 4.62305 8.69336 5.00391V8.29492H5.40234C5.01172 8.29492 4.73828 8.56836 4.73828 8.95898Z" fill="white"/>
</svg>
