<svg width="26" height="26" viewBox="0 0 26 26" fill="none" xmlns="http://www.w3.org/2000/svg">
<rect width="26" height="26" rx="2" fill="white" fill-opacity="0.45"/>
<path d="M6.64551 11.9487C6.64551 9.12744 8.93945 6.8335 11.7607 6.8335C14.582 6.8335 16.876 9.12744 16.876 11.9487C16.876 13.155 16.4541 14.2625 15.7488 15.1392L19.1699 18.5669C19.282 18.6855 19.3479 18.8438 19.3479 19.0151C19.3479 19.3645 19.0974 19.6545 18.7151 19.6545C18.5503 19.6545 18.3855 19.5886 18.2668 19.47L14.8325 16.0291C13.9756 16.675 12.9209 17.064 11.7607 17.064C8.93945 17.064 6.64551 14.77 6.64551 11.9487ZM7.50244 11.9487C7.50244 14.2954 9.41406 16.207 11.7607 16.207C14.1074 16.207 16.019 14.2954 16.019 11.9487C16.019 9.60205 14.1074 7.69043 11.7607 7.69043C9.41406 7.69043 7.50244 9.60205 7.50244 11.9487Z" fill="black"/>
</svg>
